# Blender 4.3.0
# www.blender.org
mtllib braco_esquerdo.mtl
o Braco1
v 5.038306 1.899789 1.184285
v 5.037376 1.885732 0.569397
v 5.016498 3.145070 1.155053
v 5.276359 1.911142 1.185386
v 5.238140 3.132594 1.152463
v 5.275026 1.893546 0.569937
v 5.236213 3.150381 0.536378
v 5.274747 1.885761 0.261522
v 5.274473 1.878082 -0.042661
v 5.208437 3.762654 0.511729
v 5.036910 1.878680 0.260965
v 5.036450 1.871726 -0.043236
v 4.980837 3.767502 0.518180
v 4.977719 3.749236 -0.086973
v 5.006420 3.148905 0.539860
v 5.215926 3.755224 -0.091760
v 4.604864 1.760750 1.284860
v 4.602775 1.743266 0.508957
v 4.596226 3.792204 1.235413
v 5.069999 1.776643 1.285552
v 5.028668 3.769447 1.231728
v 5.067027 1.753397 0.508978
v 5.025501 3.803919 0.453994
v 5.066327 1.743427 0.119809
v 5.065636 1.733594 -0.264021
v 4.987957 4.803011 0.416754
v 4.601727 1.734495 0.119759
v 4.600694 1.725845 -0.264099
v 4.543671 4.813360 0.425405
v 4.537193 4.788949 -0.338163
v 4.576761 3.804004 0.458966
v 5.002484 4.796144 -0.344850
vn -0.9998 -0.0175 0.0019
vn 0.0328 -0.9992 0.0228
vn -0.0059 0.0268 0.9996
vn 0.9995 0.0312 -0.0031
vn 0.9995 0.0308 -0.0017
vn 0.0297 -0.9993 0.0228
vn 0.9995 0.0311 -0.0017
vn -0.9997 -0.0245 0.0021
vn -0.9995 -0.0312 0.0022
vn -0.0254 0.9996 -0.0126
vn 0.0149 0.0409 0.9991
vn 0.0565 0.9980 0.0286
vn 0.0030 -0.0232 -0.9997
vn -1.0000 -0.0042 0.0028
vn 0.0218 -0.9995 0.0225
vn -0.0024 0.0269 0.9996
vn 0.9998 0.0206 -0.0044
vn 0.9998 0.0202 -0.0023
vn 0.0192 -0.9996 0.0225
vn 0.9998 0.0206 -0.0023
vn -0.9999 -0.0126 0.0030
vn -0.9998 -0.0207 0.0032
vn -0.0156 0.9998 -0.0093
vn 0.0111 0.0377 0.9992
vn 0.0529 0.9976 0.0440
vn 0.0006 -0.0242 -0.9997
vn -0.9996 -0.0241 0.0162
vn 0.0475 -0.9985 0.0284
vn 0.0130 0.0237 0.9996
vn 0.9995 0.0308 -0.0022
vn 0.0297 -0.9992 0.0252
vn 0.9974 0.0429 -0.0577
vn 0.0266 -0.9993 0.0252
vn 0.9994 0.0337 0.0120
vn -0.9969 -0.0388 0.0679
vn -0.9995 -0.0305 0.0061
vn 0.0204 0.9993 -0.0303
vn 0.0291 0.0362 0.9989
vn -0.0063 1.0000 0.0063
vn -0.0194 -0.0267 -0.9995
vn -0.9996 -0.0120 0.0249
vn 0.0341 -0.9990 0.0298
vn 0.0098 0.0244 0.9997
vn 0.9998 0.0202 -0.0032
vn 0.0192 -0.9995 0.0256
vn 0.9955 0.0341 -0.0887
vn 0.0167 -0.9995 0.0256
vn 0.9995 0.0238 0.0189
vn -0.9941 -0.0291 0.1045
vn -0.9998 -0.0198 0.0091
vn 0.0226 0.9992 -0.0321
vn 0.0202 0.0339 0.9992
vn 0.0004 0.9999 0.0152
vn -0.0140 -0.0267 -0.9995
vt 0.540731 0.000026
vt 0.375000 0.125230
vt 0.375000 0.000000
vt 0.375000 0.624770
vt 0.125000 0.750000
vt 0.125000 0.624770
vt 0.537986 0.749633
vt 0.375000 1.000000
vt 0.375000 0.750000
vt 0.125000 0.561954
vt 0.375000 0.561954
vt 0.581573 0.624587
vt 0.125000 0.500000
vt 0.625000 0.500000
vt 0.375000 0.500000
vt 0.582943 0.125243
vt 0.375000 0.188046
vt 0.625000 0.250000
vt 0.375000 0.250000
vt 0.875000 0.500000
vt 0.603436 0.561863
vt 0.853542 0.630993
vt 0.832005 0.762469
vt 0.540731 0.981993
vt 0.604117 0.188052
vt 0.864345 0.565044
s 0
f 3/1/1 2/2/1 1/3/1
f 6/4/2 1/5/2 2/6/2
f 5/7/3 1/8/3 4/9/3
f 6/4/4 5/7/4 4/9/4
f 11/10/2 6/4/2 2/6/2
f 8/11/5 7/12/5 6/4/5
f 12/13/6 8/11/6 11/10/6
f 16/14/7 8/11/7 9/15/7
f 15/16/8 11/17/8 2/2/8
f 11/17/9 14/18/9 12/19/9
f 14/20/10 10/21/10 16/14/10
f 10/21/11 15/22/11 7/12/11
f 7/12/12 3/23/12 5/7/12
f 14/18/13 9/15/13 12/19/13
f 19/1/14 18/2/14 17/3/14
f 22/4/15 17/5/15 18/6/15
f 21/7/16 17/8/16 20/9/16
f 22/4/17 21/7/17 20/9/17
f 27/10/15 22/4/15 18/6/15
f 24/11/18 23/12/18 22/4/18
f 28/13/19 24/11/19 27/10/19
f 32/14/20 24/11/20 25/15/20
f 31/16/21 27/17/21 18/2/21
f 27/17/22 30/18/22 28/19/22
f 30/20/23 26/21/23 32/14/23
f 26/21/24 31/22/24 23/12/24
f 23/12/25 19/23/25 21/7/25
f 30/18/26 25/15/26 28/19/26
f 3/1/27 15/16/27 2/2/27
f 6/4/28 4/9/28 1/5/28
f 5/7/29 3/24/29 1/8/29
f 6/4/30 7/12/30 5/7/30
f 11/10/31 8/11/31 6/4/31
f 8/11/32 10/21/32 7/12/32
f 12/13/33 9/15/33 8/11/33
f 16/14/34 10/21/34 8/11/34
f 15/16/35 13/25/35 11/17/35
f 11/17/36 13/25/36 14/18/36
f 14/20/37 13/26/37 10/21/37
f 10/21/38 13/26/38 15/22/38
f 7/12/39 15/22/39 3/23/39
f 14/18/40 16/14/40 9/15/40
f 19/1/41 31/16/41 18/2/41
f 22/4/42 20/9/42 17/5/42
f 21/7/43 19/24/43 17/8/43
f 22/4/44 23/12/44 21/7/44
f 27/10/45 24/11/45 22/4/45
f 24/11/46 26/21/46 23/12/46
f 28/13/47 25/15/47 24/11/47
f 32/14/48 26/21/48 24/11/48
f 31/16/49 29/25/49 27/17/49
f 27/17/50 29/25/50 30/18/50
f 30/20/51 29/26/51 26/21/51
f 26/21/52 29/26/52 31/22/52
f 23/12/53 31/22/53 19/23/53
f 30/18/54 32/14/54 25/15/54
