# Blender 4.3.0
# www.blender.org
mtllib profundor.mtl
o Profundor
v -2.441884 4.405227 -4.584163
v -2.457738 4.359424 -5.088870
v -2.450875 4.662369 -4.588184
v -1.759607 4.400884 -3.998688
v -1.759012 4.383856 -5.088871
v -1.768599 4.658025 -4.002710
v 2.062726 4.534539 -3.998689
v 2.716763 4.418555 -4.504625
v 2.053735 4.791680 -4.002710
v 2.063321 4.517511 -5.088871
v 2.694757 4.539590 -5.088871
v 2.054330 4.774652 -5.092892
v 2.685766 4.796731 -5.092892
v -1.768003 4.640997 -5.092892
v -2.466729 4.616565 -5.092892
v 2.707771 4.675696 -4.508646
vn 0.0348 -0.9954 0.0892
vn -0.9988 -0.0344 0.0345
vn -0.6512 -0.0109 0.7588
vn 0.0349 -0.9993 0.0156
vn -0.0005 0.0156 0.9999
vn 0.6153 0.0338 0.7876
vn 0.0005 -0.0156 -0.9999
vn 0.3065 0.9343 0.1820
vn -0.0349 0.9993 -0.0156
vn 0.0198 0.9997 -0.0156
vn 0.9989 0.0345 -0.0305
vn -0.0198 -0.9997 0.0156
vn -0.3065 -0.9343 -0.1820
vn -0.0348 0.9954 -0.0892
vt 0.158902 0.500000
vt 0.125000 0.750000
vt 0.125000 0.500000
vt 0.375000 0.000000
vt 0.625000 0.250000
vt 0.375000 0.250000
vt 0.625000 0.966098
vt 0.375000 1.000000
vt 0.375000 0.966098
vt 0.344363 0.750000
vt 0.158902 0.750000
vt 0.625000 0.780637
vt 0.375000 0.780637
vt 0.625000 0.750000
vt 0.375000 0.750000
vt 0.375000 0.500000
vt 0.344363 0.500000
vt 0.625000 0.283902
vt 0.375000 0.469363
vt 0.375000 0.283902
vt 0.625000 0.469363
vt 0.625000 0.500000
vt 0.655637 0.750000
vt 0.841098 0.500000
vt 0.655637 0.500000
vt 0.875000 0.750000
vt 0.841098 0.750000
vt 0.625000 0.000000
vt 0.625000 1.000000
vt 0.875000 0.500000
s 0
f 5/1/1 1/2/1 2/3/1
f 1/4/2 15/5/2 2/6/2
f 6/7/3 1/8/3 4/9/3
f 5/1/4 7/10/4 4/11/4
f 9/12/5 4/9/5 7/13/5
f 16/14/6 7/13/6 8/15/6
f 11/16/4 7/10/4 10/17/4
f 14/18/7 10/19/7 5/20/7
f 12/21/7 11/16/7 10/19/7
f 13/22/8 9/23/8 16/14/8
f 14/24/9 9/23/9 12/25/9
f 15/5/7 5/20/7 2/6/7
f 14/24/10 3/26/10 6/27/10
f 11/16/11 16/14/11 8/15/11
f 5/1/12 4/11/12 1/2/12
f 1/4/2 3/28/2 15/5/2
f 6/7/3 3/29/3 1/8/3
f 5/1/4 10/17/4 7/10/4
f 9/12/5 6/7/5 4/9/5
f 16/14/6 9/12/6 7/13/6
f 11/16/13 8/15/13 7/10/13
f 14/18/7 12/21/7 10/19/7
f 12/21/7 13/22/7 11/16/7
f 13/22/9 12/25/9 9/23/9
f 14/24/9 6/27/9 9/23/9
f 15/5/7 14/18/7 5/20/7
f 14/24/14 15/30/14 3/26/14
f 11/16/11 13/22/11 16/14/11
