# Blender 4.3.0
# www.blender.org
mtllib leme.mtl
o Leme
v 0.170400 2.242683 -4.151952
v 0.148920 3.805012 -4.379656
v 0.124210 2.170681 -4.641616
v 0.102731 3.733010 -4.869320
v 0.305399 2.242683 -4.164687
v 0.283920 3.805012 -4.392391
v 0.259209 2.170681 -4.654351
v 0.237730 3.733010 -4.882055
vn -0.9956 -0.0000 0.0939
vn -0.0929 -0.1448 -0.9851
vn 0.9956 -0.0000 -0.0939
vn 0.0929 0.1448 0.9851
vn 0.0136 -0.9895 0.1442
vn -0.0136 0.9895 -0.1442
vt 0.625000 0.000000
vt 0.375000 0.250000
vt 0.375000 0.000000
vt 0.625000 0.250000
vt 0.375000 0.500000
vt 0.625000 0.500000
vt 0.375000 0.750000
vt 0.625000 0.750000
vt 0.375000 1.000000
vt 0.125000 0.750000
vt 0.125000 0.500000
vt 0.875000 0.500000
vt 0.625000 1.000000
vt 0.875000 0.750000
s 0
f 2/1/1 3/2/1 1/3/1
f 4/4/2 7/5/2 3/2/2
f 8/6/3 5/7/3 7/5/3
f 6/8/4 1/9/4 5/7/4
f 7/5/5 1/10/5 3/11/5
f 4/12/6 6/8/6 8/6/6
f 2/1/1 4/4/1 3/2/1
f 4/4/2 8/6/2 7/5/2
f 8/6/3 6/8/3 5/7/3
f 6/8/4 2/13/4 1/9/4
f 7/5/5 5/7/5 1/10/5
f 4/12/6 2/14/6 6/8/6
