# Blender 4.3.0
# www.blender.org
mtllib leme.mtl
o rudder
v -0.178511 2.580639 -4.991810
v -0.178511 2.580639 -4.991810
v -0.195673 5.070173 -6.339235
v -0.195673 5.070173 -6.339235
v 0.036942 2.580639 -4.158898
v -0.372679 2.580639 -4.153681
v -0.393382 5.070173 -5.779106
v 0.016239 5.070173 -5.784324
vn -0.9495 -0.1661 -0.2661
vn 0.9424 -0.1661 -0.2902
vt 0.181137 0.339221
vt 0.075968 0.500286
vt 0.039896 0.500286
vt 0.127077 0.339221
vt 0.845364 0.733316
vt 0.932545 0.894382
vt 0.896473 0.894382
vt 0.791304 0.733316
s 1
usemtl Livery
f 6/1/1 7/2/1 4/3/1
f 6/1/1 4/3/1 2/4/1
f 1/5/2 3/6/2 8/7/2
f 1/5/2 8/7/2 5/8/2
