# Blender 4.3.0
# www.blender.org
mtllib braco_direito.mtl
o Braco2
v -4.747245 1.752312 1.197487
v -4.748975 1.748203 0.460065
v -4.697789 3.783702 1.181746
v -4.281847 1.754888 1.198502
v -4.266169 3.748659 1.178001
v -4.284623 1.745057 0.460353
v -4.267491 3.796538 0.439637
v -4.285179 1.741786 0.090466
v -4.285726 1.738561 -0.274346
v -4.276434 4.796772 0.419612
v -4.749842 1.746141 0.090169
v -4.750698 1.744108 -0.274652
v -4.720253 4.819667 0.427882
v -4.726582 4.808549 -0.297929
v -4.716051 3.809366 0.444254
v -4.261269 4.802553 -0.304059
v -5.021506 1.894705 1.103930
v -5.021957 1.891246 0.519534
v -4.960330 3.138973 1.095327
v -4.783230 1.890163 1.105356
v -4.740005 3.111814 1.092865
v -4.784315 1.883210 0.520372
v -4.739326 3.140211 0.507821
v -4.784401 1.880730 0.227240
v -4.784486 1.878284 -0.061870
v -4.726239 3.753297 0.493813
v -5.022182 1.889511 0.226397
v -5.022403 1.887800 -0.062719
v -4.953026 3.773177 0.499821
v -4.955961 3.765499 -0.075392
v -4.968717 3.153979 0.510909
v -4.717875 3.755695 -0.079644
vn -0.9997 0.0244 0.0022
vn 0.0055 -1.0000 0.0056
vn -0.0022 0.0103 0.9999
vn 1.0000 -0.0079 -0.0037
vn -0.0068 -1.0000 0.0056
vn 1.0000 -0.0084 -0.0014
vn -0.0094 -0.9999 0.0056
vn 1.0000 -0.0027 -0.0015
vn -0.9999 0.0160 0.0023
vn -1.0000 0.0094 0.0023
vn 0.0130 0.9999 0.0083
vn 0.0109 0.0201 0.9997
vn 0.0813 0.9946 0.0644
vn 0.0005 -0.0097 -1.0000
vn -0.9988 0.0491 0.0005
vn -0.0191 -0.9998 0.0059
vn -0.0058 0.0104 0.9999
vn 0.9994 -0.0354 -0.0014
vn -0.0338 -0.9994 0.0059
vn 0.9994 -0.0358 -0.0000
vn -0.0369 -0.9993 0.0059
vn 0.9995 -0.0310 -0.0000
vn -0.9991 0.0421 0.0005
vn -0.9993 0.0366 0.0005
vn 0.0412 0.9991 0.0048
vn 0.0148 0.0225 0.9996
vn 0.1227 0.9913 0.0483
vn 0.0032 -0.0096 -0.9999
vn -0.9995 0.0162 0.0253
vn -0.0068 -0.9999 0.0133
vn 0.0093 0.0075 0.9999
vn 1.0000 -0.0084 -0.0023
vn -0.0094 -0.9999 0.0089
vn 0.9957 0.0071 -0.0920
vn -0.0119 -0.9999 0.0089
vn 0.9998 -0.0078 0.0209
vn -0.9941 -0.0024 0.1087
vn -0.9999 0.0079 0.0086
vn 0.0512 0.9986 -0.0157
vn 0.0195 0.0163 0.9997
vn 0.0289 0.9990 0.0340
vn -0.0133 -0.0075 -0.9999
vn -0.9990 0.0422 0.0154
vn -0.0338 -0.9994 0.0119
vn 0.0120 0.0063 0.9999
vn 0.9994 -0.0358 -0.0006
vn -0.0369 -0.9993 0.0085
vn 0.9980 -0.0226 -0.0587
vn -0.0400 -0.9992 0.0085
vn 0.9993 -0.0353 0.0144
vn -0.9972 0.0265 0.0696
vn -0.9994 0.0354 0.0046
vn 0.0870 0.9961 -0.0137
vn 0.0280 0.0172 0.9995
vn 0.0602 0.9979 0.0248
vn -0.0181 -0.0061 -0.9998
vt 0.540731 0.000026
vt 0.375000 0.125230
vt 0.375000 0.000000
vt 0.125000 0.624770
vt 0.375000 0.750000
vt 0.125000 0.750000
vt 0.537986 0.749633
vt 0.375000 1.000000
vt 0.375000 0.624770
vt 0.125000 0.561954
vt 0.375000 0.561954
vt 0.581573 0.624587
vt 0.125000 0.500000
vt 0.375000 0.500000
vt 0.603436 0.561863
vt 0.582943 0.125243
vt 0.375000 0.188046
vt 0.604117 0.188052
vt 0.375000 0.250000
vt 0.875000 0.500000
vt 0.625000 0.500000
vt 0.853542 0.630993
vt 0.832005 0.762469
vt 0.540731 0.981993
vt 0.625000 0.250000
vt 0.864345 0.565044
s 0
f 3/1/1 2/2/1 1/3/1
f 2/4/2 4/5/2 1/6/2
f 5/7/3 1/8/3 4/5/3
f 6/9/4 5/7/4 4/5/4
f 11/10/5 6/9/5 2/4/5
f 8/11/6 7/12/6 6/9/6
f 12/13/7 8/11/7 11/10/7
f 9/14/8 10/15/8 8/11/8
f 15/16/9 11/17/9 2/2/9
f 13/18/10 12/19/10 11/17/10
f 14/20/11 10/15/11 16/21/11
f 10/15/12 15/22/12 7/12/12
f 7/12/13 3/23/13 5/7/13
f 12/19/14 16/21/14 9/14/14
f 19/1/15 18/2/15 17/3/15
f 18/4/16 20/5/16 17/6/16
f 21/7/17 17/8/17 20/5/17
f 22/9/18 21/7/18 20/5/18
f 27/10/19 22/9/19 18/4/19
f 24/11/20 23/12/20 22/9/20
f 28/13/21 24/11/21 27/10/21
f 25/14/22 26/15/22 24/11/22
f 31/16/23 27/17/23 18/2/23
f 29/18/24 28/19/24 27/17/24
f 30/20/25 26/15/25 32/21/25
f 26/15/26 31/22/26 23/12/26
f 23/12/27 19/23/27 21/7/27
f 28/19/28 32/21/28 25/14/28
f 3/1/29 15/16/29 2/2/29
f 2/4/30 6/9/30 4/5/30
f 5/7/31 3/24/31 1/8/31
f 6/9/32 7/12/32 5/7/32
f 11/10/33 8/11/33 6/9/33
f 8/11/34 10/15/34 7/12/34
f 12/13/35 9/14/35 8/11/35
f 9/14/36 16/21/36 10/15/36
f 15/16/37 13/18/37 11/17/37
f 13/18/38 14/25/38 12/19/38
f 14/20/39 13/26/39 10/15/39
f 10/15/40 13/26/40 15/22/40
f 7/12/41 15/22/41 3/23/41
f 12/19/42 14/25/42 16/21/42
f 19/1/43 31/16/43 18/2/43
f 18/4/44 22/9/44 20/5/44
f 21/7/45 19/24/45 17/8/45
f 22/9/46 23/12/46 21/7/46
f 27/10/47 24/11/47 22/9/47
f 24/11/48 26/15/48 23/12/48
f 28/13/49 25/14/49 24/11/49
f 25/14/50 32/21/50 26/15/50
f 31/16/51 29/18/51 27/17/51
f 29/18/52 30/25/52 28/19/52
f 30/20/53 29/26/53 26/15/53
f 26/15/54 29/26/54 31/22/54
f 23/12/55 31/22/55 19/23/55
f 28/19/56 30/25/56 32/21/56
